<?xml version="1.0" encoding="UTF-8"?>
<svg width="222px" height="49px" viewBox="0 0 222 49" version="1.1" xmlns="http://www.w3.org/2000/svg" xmlns:xlink="http://www.w3.org/1999/xlink">
    <!-- Generator: Sketch 59.1 (86144) - https://sketch.com -->
    <title>Combined Shape</title>
    <desc>Created with Sketch.</desc>
    <g id="Page-1" stroke="none" stroke-width="1" fill="none" fill-rule="evenodd">
        <g id="01-Home" transform="translate(-609.000000, -26.000000)" fill="#000000">
            <g id="Group-64" transform="translate(609.000000, 26.000000)">
                <path d="M142.462296,43.9888902 C142.933792,43.9888902 143.312673,44.1228174 143.593325,44.4018324 C143.873978,44.6836376 144.014304,45.063098 144.014304,45.5569546 C144.014304,45.5904364 144.000271,45.6211281 143.975012,45.6434493 C143.944141,45.6713508 143.913269,45.6825114 143.876784,45.6825114 L143.876784,45.6825114 L143.489484,45.6825114 C143.452999,45.6825114 143.422127,45.6685606 143.394062,45.6406591 C143.365997,45.6155478 143.351964,45.5792758 143.351964,45.5430039 C143.351964,45.2639889 143.273381,45.0407768 143.113409,44.8817383 C142.956244,44.7226997 142.737335,44.6445755 142.462296,44.6445755 C142.089028,44.6445755 141.830828,44.8064042 141.684889,45.118901 C141.58666,45.322582 141.538949,45.7801666 141.538949,46.4916549 C141.538949,47.2003531 141.58666,47.6579377 141.684889,47.8616187 C141.830828,48.1796958 142.089028,48.3359442 142.462296,48.3359442 C142.737335,48.3359442 142.956244,48.2550299 143.113409,48.0959913 C143.273381,47.9425331 143.351964,47.7221112 143.351964,47.4347257 C143.351964,47.3984538 143.365997,47.3705523 143.394062,47.3370705 C143.422127,47.3119591 143.452999,47.2980084 143.489484,47.2980084 L143.489484,47.2980084 L143.876784,47.2980084 C143.913269,47.2980084 143.944141,47.309169 143.975012,47.3342803 C144.000271,47.364972 144.014304,47.3900833 144.014304,47.4235651 C144.014304,47.9146316 143.873978,48.3024624 143.593325,48.5786873 C143.312673,48.8577023 142.933792,49 142.462296,49 C142.131126,49 141.847667,48.9190856 141.606306,48.7712077 C141.367751,48.6233297 141.19094,48.4224389 141.075873,48.1769057 C141.011323,48.034608 140.963612,47.8644089 140.929933,47.6663082 C140.899062,47.4709977 140.879416,47.2896379 140.873803,47.1389698 C140.865383,46.9771411 140.862577,46.7650897 140.862577,46.4916549 L140.862936,46.333286 C140.863924,46.1319488 140.867067,45.9698969 140.873803,45.8471302 C140.879416,45.6908818 140.899062,45.5151024 140.929933,45.3142116 C140.963612,45.1133207 141.011323,44.9431216 141.075873,44.8091944 C141.19094,44.5636611 141.367751,44.3599802 141.606306,44.2121022 C141.847667,44.0614341 142.131126,43.9888902 142.462296,43.9888902 Z M86.9646611,43.9888902 C87.4389637,43.9888902 87.815038,44.1228174 88.0956905,44.4018324 C88.3763429,44.6836376 88.5166691,45.063098 88.5166691,45.5569546 C88.5166691,45.5904364 88.5026365,45.6211281 88.4773778,45.6434493 C88.446506,45.6713508 88.4156343,45.6825114 88.3791494,45.6825114 L88.3791494,45.6825114 L87.9918491,45.6825114 C87.9553642,45.6825114 87.9244925,45.6685606 87.8964272,45.6406591 C87.868362,45.6155478 87.8543294,45.5792758 87.8543294,45.5430039 C87.8543294,45.2639889 87.7757467,45.0407768 87.6157748,44.8817383 C87.4586094,44.7226997 87.2397005,44.6445755 86.9646611,44.6445755 C86.5913934,44.6445755 86.3331931,44.8064042 86.1872538,45.118901 C86.0890255,45.322582 86.0413146,45.7801666 86.0413146,46.4916549 C86.0413146,47.2003531 86.0890255,47.6579377 86.1872538,47.8616187 C86.3331931,48.1796958 86.5913934,48.3359442 86.9646611,48.3359442 C87.2397005,48.3359442 87.4586094,48.2550299 87.6157748,48.0959913 C87.7757467,47.9425331 87.8543294,47.7221112 87.8543294,47.4347257 C87.8543294,47.3984538 87.868362,47.3705523 87.8964272,47.3370705 C87.9244925,47.3119591 87.9553642,47.2980084 87.9918491,47.2980084 L87.9918491,47.2980084 L88.3791494,47.2980084 C88.4156343,47.2980084 88.446506,47.309169 88.4773778,47.3342803 C88.5026365,47.364972 88.5166691,47.3900833 88.5166691,47.4235651 C88.5166691,47.9146316 88.3763429,48.3024624 88.0956905,48.5786873 C87.815038,48.8577023 87.4389637,49 86.9646611,49 C86.6334912,49 86.3500322,48.9190856 86.1114777,48.7712077 C85.8701166,48.6233297 85.6933055,48.4224389 85.578238,48.1769057 C85.513688,48.034608 85.465977,47.8644089 85.4322987,47.6663082 C85.401427,47.4709977 85.3817813,47.2896379 85.3761683,47.1389698 C85.3677487,46.9771411 85.3649422,46.7650897 85.3649422,46.4916549 C85.3649422,46.2154301 85.3677487,46.0005885 85.3761683,45.8471302 C85.3817813,45.6908818 85.401427,45.5151024 85.4322987,45.3142116 C85.465977,45.1133207 85.513688,44.9431216 85.578238,44.8091944 C85.6933055,44.5636611 85.8701166,44.3599802 86.1114777,44.2121022 C86.3500322,44.0614341 86.6334912,43.9888902 86.9646611,43.9888902 Z M72.4154897,44.0742524 C72.7239715,44.0742524 72.9956619,44.1419722 73.230561,44.2886984 C73.46546,44.4382464 73.6437568,44.6329408 73.7654515,44.8812468 C73.8956365,45.1549477 73.960729,45.7023495 73.960729,46.5347388 C73.960729,47.3671281 73.8956365,47.9173516 73.7654515,48.1910525 C73.6437568,48.4421801 73.46546,48.6368746 73.230561,48.7836008 C72.9956619,48.9303271 72.7239715,48.9980469 72.4154897,48.9980469 L72.4154897,48.9980469 L71.1306203,48.9980469 C71.0938289,48.9980469 71.0598676,48.9839386 71.0315665,48.955722 C71.0060955,48.9303271 70.9891149,48.8964672 70.9891149,48.856964 L70.9891149,48.856964 L70.9891149,44.2153353 C70.9891149,44.1730104 71.0060955,44.1419722 71.0315665,44.1137556 C71.0598676,44.0883607 71.0938289,44.0742524 71.1306203,44.0742524 L71.1306203,44.0742524 Z M169.918726,44.0742524 C169.98985,44.0742524 170.030883,44.1137104 170.050032,44.1813527 L170.050032,44.1813527 L170.98285,47.9270441 C170.988321,47.9552284 171.001999,47.9721389 171.023883,47.9721389 L171.023883,47.9721389 L171.034826,47.9721389 C171.059445,47.9721389 171.070388,47.9552284 171.075859,47.9270441 L171.075859,47.9270441 L172.011412,44.1813527 C172.027826,44.1137104 172.071594,44.0742524 172.139983,44.0742524 L172.139983,44.0742524 L172.569462,44.0742524 C172.646057,44.0742524 172.684355,44.110892 172.684355,44.1728974 C172.684355,44.2010817 172.676148,44.2461765 172.665206,44.2912714 L172.665206,44.2912714 L171.420536,48.8909466 C171.401388,48.9614073 171.357619,48.9980469 171.291966,48.9980469 L171.291966,48.9980469 L170.766743,48.9980469 C170.70109,48.9980469 170.657321,48.9614073 170.640908,48.8909466 L170.640908,48.8909466 L169.404445,44.2912714 C169.388032,44.2405397 169.382561,44.1954448 169.382561,44.1728974 C169.382561,44.110892 169.420859,44.0742524 169.497454,44.0742524 L169.497454,44.0742524 Z M42.4722329,44.0742524 C42.5406214,44.0742524 42.5816544,44.1137104 42.6008032,44.1813527 L42.6008032,44.1813527 L43.5336214,47.9270441 C43.5390925,47.9552284 43.5527702,47.9721389 43.5746545,47.9721389 L43.5746545,47.9721389 L43.5883322,47.9721389 C43.6102165,47.9721389 43.6238941,47.9552284 43.6266297,47.9270441 L43.6266297,47.9270441 L44.5621834,44.1813527 C44.5813322,44.1137104 44.6223653,44.0742524 44.6907537,44.0742524 L44.6907537,44.0742524 L45.120233,44.0742524 C45.1968281,44.0742524 45.2351256,44.110892 45.2351256,44.1728974 C45.2351256,44.2010817 45.226919,44.2461765 45.2159768,44.2912714 L45.2159768,44.2912714 L43.9713074,48.8909466 C43.9521586,48.9614073 43.9111256,48.9980469 43.8427371,48.9980469 L43.8427371,48.9980469 L43.3202495,48.9980469 C43.2518611,48.9980469 43.2080925,48.9614073 43.1916793,48.8909466 L43.1916793,48.8909466 L41.9552164,44.2912714 C41.9415387,44.2405397 41.9333321,44.1954448 41.9333321,44.1728974 C41.9333321,44.110892 41.9716296,44.0742524 42.0482247,44.0742524 L42.0482247,44.0742524 Z M79.8144171,44.0742524 C79.8871685,44.0742524 79.9319386,44.1109129 79.9459293,44.181414 L79.9459293,44.181414 L81.2050878,48.7809036 C81.2162803,48.8316644 81.2246747,48.873965 81.2246747,48.8993454 C81.2246747,48.9670264 81.1855009,48.9980469 81.1071532,48.9980469 L81.1071532,48.9980469 L80.7098188,48.9980469 C80.6454618,48.9980469 80.6006917,48.9642064 80.5783067,48.8937053 L80.5783067,48.8937053 L80.2761086,47.8192691 C80.262118,47.7544081 80.220146,47.7205676 80.1473946,47.7205676 L80.1473946,47.7205676 L79.0057576,47.7205676 C78.9386024,47.7205676 78.8966305,47.7544081 78.8714473,47.8192691 L78.8714473,47.8192691 L78.5720474,48.8937053 C78.5468642,48.9642064 78.5048923,48.9980469 78.4405353,48.9980469 L78.4405353,48.9980469 L78.0404027,48.9980469 C77.962055,48.9980469 77.9228812,48.9670264 77.9228812,48.8993454 C77.9228812,48.8683249 77.9312756,48.8260243 77.9452663,48.7809036 L77.9452663,48.7809036 L79.2016267,44.181414 C79.2184154,44.1109129 79.2603874,44.0742524 79.3331388,44.0742524 L79.3331388,44.0742524 Z M101.036883,44.0742524 C101.375454,44.0742524 101.670619,44.1509726 101.913695,44.3016731 C102.156772,44.4551135 102.33908,44.6469141 102.457724,44.8907748 C102.608201,45.1894357 102.686332,45.7374373 102.686332,46.5347796 C102.686332,47.334862 102.608201,47.8856036 102.457724,48.1842645 C102.33908,48.4253852 102.156772,48.6226658 101.913695,48.7706262 C101.670619,48.9240667 101.375454,48.9980469 101.036883,48.9980469 C100.695418,48.9980469 100.403147,48.9240667 100.157176,48.7706262 C99.9112054,48.6226658 99.7317915,48.4253852 99.6131469,48.1842645 C99.459777,47.8856036 99.3845389,47.334862 99.3845389,46.5347796 C99.3845389,45.7374373 99.459777,45.1894357 99.6131469,44.8907748 C99.7317915,44.6469141 99.9112054,44.4551135 100.157176,44.3016731 C100.403147,44.1509726 100.695418,44.0742524 101.036883,44.0742524 Z M178.540841,44.0742524 C178.613592,44.0742524 178.655564,44.1109129 178.669555,44.181414 L178.669555,44.181414 L179.928713,48.7809036 C179.942704,48.8316644 179.9483,48.873965 179.9483,48.8993454 C179.9483,48.9670264 179.909126,48.9980469 179.830779,48.9980469 L179.830779,48.9980469 L179.433444,48.9980469 C179.369087,48.9980469 179.324317,48.9642064 179.301932,48.8937053 L179.301932,48.8937053 L178.999734,47.8192691 C178.985744,47.7544081 178.943772,47.7205676 178.868222,47.7205676 L178.868222,47.7205676 L177.729383,47.7205676 C177.662228,47.7205676 177.620256,47.7544081 177.595073,47.8192691 L177.595073,47.8192691 L177.295673,48.8937053 C177.27049,48.9642064 177.228518,48.9980469 177.164161,48.9980469 L177.164161,48.9980469 L176.764028,48.9980469 C176.688479,48.9980469 176.646507,48.9670264 176.646507,48.8993454 C176.646507,48.8683249 176.654901,48.8260243 176.668892,48.7809036 L176.668892,48.7809036 L177.92805,44.181414 C177.942041,44.1109129 177.984013,44.0742524 178.056764,44.0742524 L178.056764,44.0742524 Z M149.812439,44.0742524 C149.885191,44.0742524 149.929961,44.1109129 149.943951,44.181414 L149.943951,44.181414 L151.20311,48.7809036 C151.214302,48.8316644 151.222697,48.873965 151.222697,48.8993454 C151.222697,48.9670264 151.183523,48.9980469 151.105175,48.9980469 L151.105175,48.9980469 L150.707841,48.9980469 C150.643484,48.9980469 150.598714,48.9642064 150.576329,48.8937053 L150.576329,48.8937053 L150.274131,47.8192691 C150.26014,47.7544081 150.21537,47.7205676 150.142619,47.7205676 L150.142619,47.7205676 L149.00378,47.7205676 C148.936625,47.7205676 148.894653,47.7544081 148.869469,47.8192691 L148.869469,47.8192691 L148.57007,48.8937053 C148.544886,48.9642064 148.502914,48.9980469 148.435759,48.9980469 L148.435759,48.9980469 L148.038425,48.9980469 C147.960077,48.9980469 147.920903,48.9670264 147.920903,48.8993454 C147.920903,48.8683249 147.929298,48.8260243 147.94049,48.7809036 L147.94049,48.7809036 L149.199649,44.181414 C149.216438,44.1109129 149.25841,44.0742524 149.331161,44.0742524 L149.331161,44.0742524 Z M66.484109,44.0742524 C66.5219825,44.0742524 66.5540293,44.0883526 66.5831628,44.116553 C66.6122963,44.1475735 66.6239496,44.178594 66.6239496,44.2124345 L66.6239496,44.2124345 L66.6239496,44.5451995 C66.6239496,44.5846801 66.6122963,44.6185206 66.5831628,44.643901 C66.5540293,44.6721014 66.5219825,44.6833816 66.484109,44.6833816 L66.484109,44.6833816 L65.6246716,44.6833816 C65.5751447,44.6833816 65.5518379,44.708762 65.5518379,44.7567027 L65.5518379,44.7567027 L65.5518379,48.3099565 C65.5518379,48.3578972 65.5751447,48.3804575 65.6246716,48.3804575 L65.6246716,48.3804575 L66.5540293,48.3804575 C66.5919028,48.3804575 66.6239496,48.3945578 66.6559965,48.4227582 C66.6822166,48.4481386 66.6967833,48.4847991 66.6967833,48.5214597 L66.6967833,48.5214597 L66.6967833,48.8598648 C66.6967833,48.8965254 66.6822166,48.9303659 66.6559965,48.9585663 C66.6239496,48.9867667 66.5919028,48.9980469 66.5540293,48.9980469 L66.5540293,48.9980469 L63.8708365,48.9980469 C63.832963,48.9980469 63.7980029,48.9867667 63.7688694,48.9585663 C63.7397359,48.9303659 63.7251692,48.8965254 63.7251692,48.8598648 L63.7251692,48.8598648 L63.7251692,48.5214597 C63.7251692,48.4847991 63.7397359,48.4481386 63.7688694,48.4227582 C63.7980029,48.3945578 63.832963,48.3804575 63.8708365,48.3804575 L63.8708365,48.3804575 L64.8001943,48.3804575 C64.8497212,48.3804575 64.8701146,48.3578972 64.8701146,48.3099565 L64.8701146,48.3099565 L64.8701146,44.7567027 C64.8701146,44.708762 64.8497212,44.6833816 64.8001943,44.6833816 L64.8001943,44.6833816 L63.9407569,44.6833816 C63.9028834,44.6833816 63.8708365,44.6721014 63.8387897,44.643901 C63.8125696,44.6185206 63.7980029,44.5846801 63.7980029,44.5451995 L63.7980029,44.5451995 L63.7980029,44.2124345 C63.7980029,44.178594 63.8125696,44.1475735 63.8387897,44.116553 C63.8708365,44.0883526 63.9028834,44.0742524 63.9407569,44.0742524 L63.9407569,44.0742524 Z M57.6353413,44.0742524 C57.6696799,44.0742524 57.7013771,44.0883526 57.72515,44.113733 C57.7515644,44.1447535 57.7647716,44.1757739 57.7647716,44.2152545 L57.7647716,44.2152545 L57.7647716,48.2591957 C57.7647716,48.3071364 57.785903,48.3296968 57.828166,48.3296968 L57.828166,48.3296968 L59.608493,48.3296968 C59.6428317,48.3296968 59.6718875,48.343797 59.7009433,48.3719974 C59.7247162,48.3973778 59.7379234,48.4340384 59.7379234,48.4706989 L59.7379234,48.4706989 L59.7379234,48.8570448 C59.7379234,48.8965254 59.7247162,48.9275458 59.7009433,48.9557463 C59.6718875,48.9811266 59.6428317,48.9980469 59.608493,48.9980469 L59.608493,48.9980469 L57.2787476,48.9980469 C57.2444089,48.9980469 57.2127117,48.9811266 57.1862973,48.9557463 C57.159883,48.9275458 57.1466758,48.8965254 57.1466758,48.8570448 L57.1466758,48.8570448 L57.1466758,44.2152545 C57.1466758,44.1757739 57.159883,44.1447535 57.1862973,44.113733 C57.2127117,44.0883526 57.2444089,44.0742524 57.2787476,44.0742524 L57.2787476,44.0742524 Z M107.68994,44.0742524 C107.757412,44.0742524 107.805206,44.1165288 107.836131,44.1926264 L107.836131,44.1926264 L109.230568,47.5691037 C109.250248,47.6198354 109.267116,47.6423828 109.286796,47.6423828 C109.309287,47.6423828 109.320532,47.6254722 109.320532,47.5916511 L109.320532,47.5916511 L109.320532,44.2179922 C109.320532,44.1757158 109.334589,44.1447131 109.362703,44.1193472 C109.390816,44.0883445 109.424553,44.0742524 109.4611,44.0742524 L109.4611,44.0742524 L109.812521,44.0742524 C109.849069,44.0742524 109.879994,44.0883445 109.908108,44.1193472 C109.936221,44.1447131 109.950278,44.1757158 109.950278,44.2179922 L109.950278,44.2179922 L109.950278,48.854307 C109.950278,48.893765 109.936221,48.9304046 109.908108,48.952952 C109.879994,48.9811363 109.849069,48.9980469 109.812521,48.9980469 L109.812521,48.9980469 L109.239002,48.9980469 C109.174341,48.9980469 109.126548,48.9557705 109.095623,48.8768545 L109.095623,48.8768545 L107.698374,45.4750113 C107.678694,45.427098 107.661826,45.407369 107.642146,45.407369 C107.619655,45.407369 107.60841,45.4242796 107.60841,45.4524639 L107.60841,45.4524639 L107.60841,48.854307 C107.60841,48.893765 107.594353,48.9304046 107.56624,48.952952 C107.538126,48.9811363 107.507201,48.9980469 107.470653,48.9980469 L107.470653,48.9980469 L107.119232,48.9980469 C107.082685,48.9980469 107.048948,48.9811363 107.020834,48.952952 C106.992721,48.9304046 106.978664,48.893765 106.978664,48.854307 L106.978664,48.854307 L106.978664,44.2179922 C106.978664,44.1757158 106.992721,44.1447131 107.020834,44.1193472 C107.048948,44.0883445 107.082685,44.0742524 107.119232,44.0742524 L107.119232,44.0742524 Z M134.215323,44.0742524 C134.252972,44.0742524 134.282554,44.0881536 134.309446,44.1187361 C134.336339,44.1437582 134.349785,44.1743408 134.349785,44.2160443 L134.349785,44.2160443 L134.349785,47.49116 C134.349785,48.0583278 134.634845,48.3419117 135.207654,48.3419117 C135.484646,48.3419117 135.697096,48.2668453 135.845004,48.1111522 C135.992913,47.9582394 136.068212,47.7497218 136.068212,47.49116 L136.068212,47.49116 L136.068212,44.2160443 C136.068212,44.1743408 136.081658,44.1437582 136.105861,44.1187361 C136.135443,44.0881536 136.165024,44.0742524 136.199985,44.0742524 L136.199985,44.0742524 L136.563033,44.0742524 C136.597993,44.0742524 136.627574,44.0881536 136.657156,44.1187361 C136.681359,44.1437582 136.694805,44.1743408 136.694805,44.2160443 L136.694805,44.2160443 L136.694805,47.418874 C136.694805,47.9220963 136.557654,48.3113291 136.28604,48.5865723 C136.011738,48.8645957 135.654068,48.9980469 135.207654,48.9980469 C134.742415,48.9980469 134.376677,48.8673759 134.113132,48.5921327 C133.852275,48.32245 133.723191,47.9332173 133.723191,47.418874 L133.723191,47.418874 L133.723191,44.2160443 C133.723191,44.1743408 133.733948,44.1437582 133.760841,44.1187361 C133.787733,44.0881536 133.817315,44.0742524 133.852275,44.0742524 L133.852275,44.0742524 Z M128.214327,44.0742524 C128.523103,44.0742524 128.795052,44.1419722 129.030175,44.2886984 C129.265298,44.4382464 129.443765,44.6329408 129.565575,44.8812468 C129.695885,45.1549477 129.761039,45.7023495 129.761039,46.5347388 C129.761039,47.3671281 129.695885,47.9173516 129.565575,48.1910525 C129.443765,48.4421801 129.265298,48.6368746 129.030175,48.7836008 C128.795052,48.9303271 128.523103,48.9980469 128.214327,48.9980469 L128.214327,48.9980469 L126.928232,48.9980469 C126.891406,48.9980469 126.860245,48.9839386 126.829084,48.955722 C126.803589,48.9303271 126.789425,48.8964672 126.789425,48.856964 L126.789425,48.856964 L126.789425,44.2153353 C126.789425,44.1730104 126.803589,44.1419722 126.829084,44.1137556 C126.860245,44.0883607 126.891406,44.0742524 126.928232,44.0742524 L126.928232,44.0742524 Z M121.951637,44.0742524 C121.985976,44.0742524 122.017673,44.0883526 122.044087,44.113733 C122.06786,44.1447535 122.081067,44.1757739 122.081067,44.2152545 L122.081067,44.2152545 L122.081067,44.6016004 C122.081067,44.6354409 122.06786,44.6721014 122.044087,44.7003019 C122.017673,44.7285023 121.985976,44.7426025 121.951637,44.7426025 L121.951637,44.7426025 L120.276967,44.7426025 C120.234705,44.7426025 120.213573,44.7651628 120.213573,44.8102835 L120.213573,44.8102835 L120.213573,46.0793027 C120.213573,46.1244234 120.234705,46.1498038 120.276967,46.1498038 L120.276967,46.1498038 L121.880318,46.1498038 C121.914657,46.1498038 121.946354,46.161084 121.970127,46.1921044 C121.999183,46.2174848 122.009749,46.2513253 122.009749,46.2908059 L122.009749,46.2908059 L122.009749,46.6771518 C122.009749,46.7138123 121.999183,46.7448328 121.970127,46.7758533 C121.946354,46.8012337 121.914657,46.8181539 121.880318,46.8181539 L121.880318,46.8181539 L120.276967,46.8181539 C120.234705,46.8181539 120.213573,46.8407142 120.213573,46.888655 L120.213573,46.888655 L120.213573,48.2591957 C120.213573,48.3071364 120.234705,48.3296968 120.276967,48.3296968 L120.276967,48.3296968 L121.964844,48.3296968 C121.999183,48.3296968 122.028239,48.343797 122.057295,48.3719974 C122.081067,48.3973778 122.096916,48.4340384 122.096916,48.4706989 L122.096916,48.4706989 L122.096916,48.8570448 C122.096916,48.8965254 122.081067,48.9275458 122.057295,48.9557463 C122.028239,48.9811266 121.999183,48.9980469 121.964844,48.9980469 L121.964844,48.9980469 L119.727549,48.9980469 C119.690569,48.9980469 119.658872,48.9811266 119.635099,48.9557463 C119.608684,48.9275458 119.595477,48.8965254 119.595477,48.8570448 L119.595477,48.8570448 L119.595477,44.2152545 C119.595477,44.1757739 119.608684,44.1447535 119.635099,44.113733 C119.658872,44.0883526 119.690569,44.0742524 119.727549,44.0742524 L119.727549,44.0742524 Z M51.0916119,44.0742524 C51.1643632,44.0742524 51.2063352,44.1109129 51.2203258,44.181414 L51.2203258,44.181414 L52.4794844,48.7809036 C52.493475,48.8316644 52.4990713,48.873965 52.4990713,48.8993454 C52.4990713,48.9670264 52.4598975,48.9980469 52.3815498,48.9980469 L52.3815498,48.9980469 L51.9842154,48.9980469 C51.9198584,48.9980469 51.8750883,48.9642064 51.8527032,48.8937053 L51.8527032,48.8937053 L51.5505052,47.8192691 C51.5365145,47.7544081 51.4945426,47.7205676 51.4189931,47.7205676 L51.4189931,47.7205676 L50.2801541,47.7205676 C50.212999,47.7205676 50.1710271,47.7544081 50.1458439,47.8192691 L50.1458439,47.8192691 L49.846444,48.8937053 C49.8212608,48.9642064 49.7792889,48.9980469 49.7149319,48.9980469 L49.7149319,48.9980469 L49.3147993,48.9980469 C49.2392497,48.9980469 49.1972778,48.9670264 49.1972778,48.8993454 C49.1972778,48.8683249 49.2056722,48.8260243 49.2196628,48.7809036 L49.2196628,48.7809036 L50.4788214,44.181414 C50.492812,44.1109129 50.534784,44.0742524 50.6075354,44.0742524 L50.6075354,44.0742524 Z M158.355001,44.0742524 C158.389926,44.0742524 158.419478,44.0883445 158.446344,44.1193472 C158.47321,44.1447131 158.486643,44.1757158 158.486643,44.2179922 L158.486643,44.2179922 L158.486643,44.6012985 C158.486643,44.6407565 158.47321,44.6717592 158.446344,44.7027619 C158.419478,44.7281278 158.389926,44.7422199 158.355001,44.7422199 L158.355001,44.7422199 L157.218582,44.7422199 C157.175597,44.7422199 157.154104,44.7675858 157.154104,44.8154991 L157.154104,44.8154991 L157.154104,48.854307 C157.154104,48.893765 157.140671,48.9304046 157.113806,48.952952 C157.08694,48.9811363 157.057388,48.9980469 157.019776,48.9980469 L157.019776,48.9980469 L156.657089,48.9980469 C156.622164,48.9980469 156.592611,48.9811363 156.565746,48.952952 C156.53888,48.9304046 156.525447,48.893765 156.525447,48.854307 L156.525447,48.854307 L156.525447,44.8154991 C156.525447,44.7675858 156.503954,44.7422199 156.460969,44.7422199 L156.460969,44.7422199 L155.319177,44.7422199 C155.281566,44.7422199 155.252013,44.7281278 155.225148,44.7027619 C155.198282,44.6717592 155.184849,44.6407565 155.184849,44.6012985 L155.184849,44.6012985 L155.184849,44.2179922 C155.184849,44.1757158 155.198282,44.1447131 155.225148,44.1193472 C155.252013,44.0883445 155.281566,44.0742524 155.319177,44.0742524 L155.319177,44.0742524 Z M95.2097124,44.0742524 C95.2475859,44.0742524 95.2796327,44.0883526 95.3087662,44.116553 C95.3378997,44.1475735 95.3495531,44.178594 95.3495531,44.2124345 L95.3495531,44.2124345 L95.3495531,44.5451995 C95.3495531,44.5846801 95.3378997,44.6185206 95.3087662,44.643901 C95.2796327,44.6721014 95.2475859,44.6833816 95.2097124,44.6833816 L95.2097124,44.6833816 L94.3473616,44.6833816 C94.3007481,44.6833816 94.2774413,44.708762 94.2774413,44.7567027 L94.2774413,44.7567027 L94.2774413,48.3099565 C94.2774413,48.3578972 94.3007481,48.3804575 94.3473616,48.3804575 L94.3473616,48.3804575 L95.2796327,48.3804575 C95.3175062,48.3804575 95.3495531,48.3945578 95.3786865,48.4227582 C95.40782,48.4481386 95.4223867,48.4847991 95.4223867,48.5214597 L95.4223867,48.5214597 L95.4223867,48.8598648 C95.4223867,48.8965254 95.40782,48.9303659 95.3786865,48.9585663 C95.3495531,48.9867667 95.3175062,48.9980469 95.2796327,48.9980469 L95.2796327,48.9980469 L92.59644,48.9980469 C92.5556531,48.9980469 92.5236063,48.9867667 92.4944728,48.9585663 C92.4653393,48.9303659 92.4507726,48.8965254 92.4507726,48.8598648 L92.4507726,48.8598648 L92.4507726,48.5214597 C92.4507726,48.4847991 92.4653393,48.4481386 92.4944728,48.4227582 C92.5236063,48.3945578 92.5556531,48.3804575 92.59644,48.3804575 L92.59644,48.3804575 L93.5257977,48.3804575 C93.5724113,48.3804575 93.595718,48.3578972 93.595718,48.3099565 L93.595718,48.3099565 L93.595718,44.7567027 C93.595718,44.708762 93.5724113,44.6833816 93.5257977,44.6833816 L93.5257977,44.6833816 L92.6663603,44.6833816 C92.6284868,44.6833816 92.59644,44.6721014 92.5643931,44.643901 C92.538173,44.6185206 92.5236063,44.5846801 92.5236063,44.5451995 L92.5236063,44.5451995 L92.5236063,44.2124345 C92.5236063,44.178594 92.538173,44.1475735 92.5643931,44.116553 C92.59644,44.0883526 92.6284868,44.0742524 92.6663603,44.0742524 L92.6663603,44.0742524 Z M165.207735,44.0742524 C165.245608,44.0742524 165.277655,44.0883526 165.306788,44.116553 C165.335922,44.1475735 165.347575,44.178594 165.347575,44.2124345 L165.347575,44.2124345 L165.347575,44.5451995 C165.347575,44.5846801 165.335922,44.6185206 165.306788,44.643901 C165.277655,44.6721014 165.245608,44.6833816 165.207735,44.6833816 L165.207735,44.6833816 L164.345384,44.6833816 C164.29877,44.6833816 164.275463,44.708762 164.275463,44.7567027 L164.275463,44.7567027 L164.275463,48.3099565 C164.275463,48.3578972 164.29877,48.3804575 164.345384,48.3804575 L164.345384,48.3804575 L165.277655,48.3804575 C165.315528,48.3804575 165.347575,48.3945578 165.376709,48.4227582 C165.405842,48.4481386 165.420409,48.4847991 165.420409,48.5214597 L165.420409,48.5214597 L165.420409,48.8598648 C165.420409,48.8965254 165.405842,48.9303659 165.376709,48.9585663 C165.347575,48.9867667 165.315528,48.9980469 165.277655,48.9980469 L165.277655,48.9980469 L162.594462,48.9980469 C162.553675,48.9980469 162.518715,48.9867667 162.492495,48.9585663 C162.463361,48.9303659 162.448795,48.8965254 162.448795,48.8598648 L162.448795,48.8598648 L162.448795,48.5214597 C162.448795,48.4847991 162.463361,48.4481386 162.492495,48.4227582 C162.518715,48.3945578 162.553675,48.3804575 162.594462,48.3804575 L162.594462,48.3804575 L163.52382,48.3804575 C163.570433,48.3804575 163.59374,48.3578972 163.59374,48.3099565 L163.59374,48.3099565 L163.59374,44.7567027 C163.59374,44.708762 163.570433,44.6833816 163.52382,44.6833816 L163.52382,44.6833816 L162.664382,44.6833816 C162.626509,44.6833816 162.594462,44.6721014 162.562415,44.643901 C162.536195,44.6185206 162.518715,44.5846801 162.518715,44.5451995 L162.518715,44.5451995 L162.518715,44.2124345 C162.518715,44.178594 162.536195,44.1475735 162.562415,44.116553 C162.594462,44.0883526 162.626509,44.0742524 162.664382,44.0742524 L162.664382,44.0742524 Z M101.036883,44.7263743 C100.672267,44.7263743 100.40604,44.8770748 100.238202,45.1839557 C100.134026,45.3784962 100.081938,45.8278576 100.081938,46.5347796 C100.081938,47.2471817 100.134026,47.6992831 100.238202,47.8938236 C100.40604,48.1952245 100.672267,48.351405 101.036883,48.351405 C101.401498,48.351405 101.664831,48.1952245 101.83267,47.8938236 C101.936846,47.6992831 101.988933,47.2471817 101.988933,46.5347796 C101.988933,45.8278576 101.936846,45.3784962 101.83267,45.1839557 C101.664831,44.8770748 101.401498,44.7263743 101.036883,44.7263743 Z M72.4154897,44.7401638 L71.722113,44.7401638 C71.6740012,44.7401638 71.6513603,44.7627371 71.6513603,44.813527 L71.6513603,44.813527 L71.6513603,48.2587723 C71.6513603,48.3095622 71.6740012,48.3321354 71.722113,48.3321354 L71.722113,48.3321354 L72.4154897,48.3321354 C72.5598252,48.3321354 72.6985005,48.2926322 72.8343458,48.2220907 C72.9673609,48.1430843 73.0692448,48.0386829 73.1399975,47.9004216 C73.230561,47.7254788 73.2786728,47.2683701 73.2786728,46.5347388 C73.2786728,45.8039292 73.230561,45.3468205 73.1399975,45.169056 C73.0692448,45.036438 72.9673609,44.9320366 72.8343458,44.8530302 C72.6985005,44.7796671 72.5598252,44.7401638 72.4154897,44.7401638 L72.4154897,44.7401638 Z M128.214327,44.7401638 L127.520289,44.7401638 C127.472131,44.7401638 127.449469,44.7627371 127.449469,44.813527 L127.449469,44.813527 L127.449469,48.2587723 C127.449469,48.3095622 127.472131,48.3321354 127.520289,48.3321354 L127.520289,48.3321354 L128.214327,48.3321354 C128.3588,48.3321354 128.497607,48.2926322 128.633582,48.2220907 C128.766724,48.1430843 128.868705,48.0386829 128.939525,47.9004216 C129.033008,47.7254788 129.078333,47.2683701 129.078333,46.5347388 C129.078333,45.8039292 129.033008,45.3468205 128.939525,45.169056 C128.868705,45.036438 128.766724,44.9320366 128.633582,44.8530302 C128.497607,44.7796671 128.3588,44.7401638 128.214327,44.7401638 L128.214327,44.7401638 Z M50.8565689,44.9823061 L50.8425783,44.9823061 C50.8341839,44.9823061 50.8229914,44.9964063 50.814597,45.0246068 L50.814597,45.0246068 L50.3668962,46.9873565 C50.3529055,47.0409373 50.3724924,47.0634976 50.4228588,47.0634976 L50.4228588,47.0634976 L51.2762884,47.0634976 C51.3266548,47.0634976 51.3434436,47.0409373 51.3294529,46.9873565 L51.3294529,46.9873565 L50.8845502,45.0246068 C50.8733577,44.9964063 50.8649633,44.9823061 50.8565689,44.9823061 L50.8565689,44.9823061 Z M178.305798,44.9823061 L178.291807,44.9823061 C178.283413,44.9823061 178.27222,44.9964063 178.263826,45.0246068 L178.263826,45.0246068 L177.816125,46.9873565 C177.802134,47.0409373 177.821721,47.0634976 177.872088,47.0634976 L177.872088,47.0634976 L178.725517,47.0634976 C178.775884,47.0634976 178.792673,47.0409373 178.778682,46.9873565 L178.778682,46.9873565 L178.333779,45.0246068 C178.322587,44.9964063 178.314192,44.9823061 178.305798,44.9823061 L178.305798,44.9823061 Z M79.5793742,44.9823061 L79.5681817,44.9823061 C79.5597873,44.9823061 79.5485948,44.9964063 79.5402004,45.0246068 L79.5402004,45.0246068 L79.0924996,46.9873565 C79.0785089,47.0409373 79.0980958,47.0634976 79.1484622,47.0634976 L79.1484622,47.0634976 L80.0018919,47.0634976 C80.0494601,47.0634976 80.069047,47.0409373 80.0550563,46.9873565 L80.0550563,46.9873565 L79.6101537,45.0246068 C79.5989611,44.9964063 79.5905667,44.9823061 79.5793742,44.9823061 L79.5793742,44.9823061 Z M149.577396,44.9823061 L149.566204,44.9823061 C149.557809,44.9823061 149.546617,44.9964063 149.538223,45.0246068 L149.538223,45.0246068 L149.090522,46.9873565 C149.076531,47.0409373 149.096118,47.0634976 149.146484,47.0634976 L149.146484,47.0634976 L149.999914,47.0634976 C150.047482,47.0634976 150.067069,47.0409373 150.053078,46.9873565 L150.053078,46.9873565 L149.608176,45.0246068 C149.596983,44.9964063 149.588589,44.9823061 149.577396,44.9823061 L149.577396,44.9823061 Z M101.848998,43.040912 C101.904468,43.040912 101.933524,43.0724243 101.933524,43.1275708 C101.933524,43.151205 101.925599,43.1774653 101.907109,43.1932214 L101.907109,43.1932214 L101.349766,43.7184262 C101.289013,43.7683206 101.222978,43.7945809 101.1543,43.7945809 L101.1543,43.7945809 L100.89544,43.7945809 C100.829404,43.7945809 100.797707,43.7656946 100.797707,43.70267 C100.797707,43.6842879 100.805631,43.6632797 100.824121,43.6370194 L100.824121,43.6370194 L101.167507,43.145953 C101.20977,43.0803024 101.265241,43.040912 101.336559,43.040912 L101.336559,43.040912 Z M44.7303807,10.2641967 C50.3331713,10.2641967 51.0954178,12.8455931 51.0954178,16.4539966 L51.0954178,16.4539966 L51.0954178,30.382434 C51.0954178,32.9610546 51.6045095,33.7354735 53.8968132,33.7354735 L53.8968132,33.7354735 L54.149968,33.7354735 L54.149968,34.7652563 L48.2968045,34.7652563 L48.2968045,31.4149925 L46.9726097,32.1866357 C44.577375,33.5800346 42.0319165,35.5396752 38.4154181,35.5396752 C35.0047819,35.5396752 33.0184897,33.7354735 33.0184897,30.8987132 C33.0184897,26.5131152 38.3124869,23.4681778 44.7303807,20.3233154 L44.7303807,20.3233154 L48.2968045,18.5690761 L48.2968045,16.4539966 C48.1437988,12.5846777 47.531776,11.5548949 43.9653521,11.5548949 C40.6576471,11.5548949 36.8380684,13.3590966 36.8380684,15.421438 C36.8380684,16.1458944 37.0912233,17.023014 37.0912233,17.5365176 C37.0912233,18.7744776 36.3261947,19.5488965 35.1577876,19.5488965 C34.0366731,19.5488965 33.2716446,18.7744776 33.2716446,17.4865551 C33.2716446,14.6497948 38.8744352,10.2641967 44.7303807,10.2641967 Z M132.657373,0.416607724 L132.657373,30.3808879 C132.657373,32.9602816 133.165189,33.7349326 135.451747,33.7349326 L135.451747,33.7349326 L135.704267,33.7349326 L135.704267,34.7650242 L135.110293,34.7655882 C132.551905,34.7743468 131.344128,34.8876541 130.370814,35.2814582 L130.370814,35.2814582 L129.862999,35.2814582 L129.862999,31.671973 C129.862999,31.671973 127.831736,35.5396752 123.006098,35.5396752 C116.654239,35.5396752 112.591713,30.6391049 112.591713,22.8981475 C112.591713,15.415407 116.909534,10.2566197 123.513914,10.2566197 C128.084256,10.2566197 129.862999,12.8387899 129.862999,12.8387899 L129.862999,12.8387899 L129.862999,6.35004609 C129.862999,3.7678759 129.355183,2.99600138 127.068625,2.99600138 L127.068625,2.99600138 L126.813329,2.99600138 L126.813329,1.96590983 L127.068625,1.96590983 C129.862999,1.96590983 131.133926,1.44669927 132.149557,0.416607724 L132.149557,0.416607724 L132.657373,0.416607724 Z M153.879722,10.2641967 C160.780504,10.2641967 164.099691,15.421438 164.099691,20.8395946 L164.099691,20.8395946 L164.099691,21.3530982 L146.010261,21.3530982 C145.960012,21.8693775 145.960012,22.3856567 145.960012,22.901936 C145.960012,30.382434 150.557743,33.7354735 154.647406,33.7354735 C161.034538,33.7354735 162.567115,27.8010376 162.567115,27.8010376 L162.567115,27.8010376 L163.588833,28.0591773 C163.588833,28.0591773 162.056256,35.5396752 153.625688,35.5396752 C147.492589,35.5396752 142.638034,30.6377979 142.638034,22.901936 C142.638034,14.9051588 147.746623,10.2641967 153.879722,10.2641967 Z M211.876412,10.1825035 C218.70935,10.1825035 222,15.3388802 222,20.7561284 L222,20.7561284 L222,21.2723211 L204.081167,21.2723211 C204.031392,21.7885139 204.031392,22.3047066 204.031392,22.8208993 C204.031392,30.2973679 208.585762,33.6498453 212.636857,33.6498453 C218.963753,33.6498453 220.481877,27.7191796 220.481877,27.7191796 L220.481877,27.7191796 L221.493959,27.9772759 C221.493959,27.9772759 219.975835,35.4565198 211.624774,35.4565198 C205.54675,35.4565198 200.737977,30.5554643 200.737977,22.8208993 C200.737977,14.8254627 205.801153,10.1825035 211.876412,10.1825035 Z M8.88631494,10.8063831 L8.88631494,11.8375351 C7.10572375,11.8375351 5.73561152,11.9428678 7.05580063,15.2386735 L7.05580063,15.2386735 L13.2490407,30.7946546 L19.1399686,16.0092656 C20.1578455,13.4369294 19.75014,11.8375351 17.2096081,11.8375351 L17.2096081,11.8375351 L16.957219,11.8375351 L16.957219,10.8063831 L25.1335162,10.8063831 L25.1335162,11.8375351 C22.0854326,11.8375351 21.3227183,13.8998391 20.4102346,16.2171591 L20.4102346,16.2171591 L12.9467285,35.0190514 L11.9316251,35.0190514 L4.31557617,15.9593711 C3.30047278,13.3842631 2.79292108,11.8375351 2.91322522e-13,11.8375351 L2.91322522e-13,11.8375351 L2.91322522e-13,10.8063831 L8.88631494,10.8063831 Z M72.0634843,0.416607724 L72.0637951,29.8711481 C72.0748541,33.0347656 72.4057432,33.5284492 76.9145476,33.5284492 L76.9145476,33.5284492 L80.2341367,33.5284492 L80.2341367,34.5549163 L61.0837344,34.5549163 L61.0837344,33.5284492 L64.4033234,33.5284492 C68.9977462,33.5284492 69.2543867,33.0152157 69.2543867,29.681957 L69.2543228,5.10784238 C69.252276,3.22131601 69.184732,2.98001612 66.9557805,2.98001612 L62.6152087,2.98001612 L62.6152087,1.95630836 L64.9138148,1.95630836 C68.7438953,1.95630836 70.5320101,1.44307481 71.5529929,0.416607724 L71.5529929,0.416607724 L72.0634843,0.416607724 Z M98.1476529,9.93594378 L98.1479637,29.8705624 C98.1590227,33.0345756 98.4899118,33.5283209 102.998716,33.5283209 L102.998716,33.5283209 L106.318305,33.5283209 L106.318305,34.5549163 L87.167903,34.5549163 L87.167903,33.5283209 L90.487492,33.5283209 C95.0847044,33.5283209 95.3385553,33.0150232 95.3385553,29.6813477 L95.3380443,13.9428038 C95.3301226,12.2152929 95.1994149,11.986375 93.0427387,11.986375 L93.0427387,11.986375 L88.7021668,11.986375 L88.7021668,10.9625392 L90.9979835,10.9625392 C94.8280639,10.9625392 96.6161787,10.7058903 97.6371615,9.93594378 L97.6371615,9.93594378 L98.1476529,9.93594378 Z M179.218223,9.93594378 L179.218223,16.6040422 C179.218223,16.6040422 183.52897,10.1926214 187.582235,10.1926214 C190.622184,10.1926214 193.155474,11.7326872 193.155474,15.0667364 C193.155474,16.7586007 192.244597,17.6307527 191.029171,17.6307527 C189.913416,17.6307527 189.102209,16.7586007 189.102209,15.6297712 C189.102209,14.5533811 189.608867,14.2939435 189.608867,13.269993 C189.608867,12.2460424 188.850264,11.4760095 187.075577,11.4760095 C183.780914,11.4760095 179.218223,18.4007856 179.218223,18.4007856 L179.218223,18.4007856 L179.218547,29.8764459 C179.229867,33.0375447 179.562346,33.5309658 184.032859,33.5309658 L184.794231,33.5309658 L184.794231,34.5549163 L171.363637,34.5549163 L171.363637,33.5309658 L171.881803,33.5303563 C176.190826,33.5097497 176.432987,32.952237 176.432987,29.6835613 L176.432479,13.9409651 C176.424608,12.2155484 176.294724,11.9866048 174.151641,11.9866048 L174.151641,11.9866048 L171.363637,11.9866048 L171.363637,10.9626543 L172.125009,10.9626543 C175.926329,10.9626543 177.698248,10.7059767 178.714333,9.93594378 L178.714333,9.93594378 L179.218223,9.93594378 Z M123.513914,11.5477048 C118.940797,11.5477048 115.893903,15.931841 115.893903,22.8981475 C115.893903,30.1226709 118.940797,34.2513667 123.513914,34.2513667 C127.579215,34.2513667 129.862999,30.6391049 129.862999,27.0268432 L129.862999,27.0268432 L129.862999,17.2229261 C129.862999,14.6435325 128.336776,11.5477048 123.513914,11.5477048 Z M48.2968045,19.5488965 L44.7303807,21.3558739 C40.7577963,23.3682527 36.0730399,26.2549755 36.0730399,30.1242943 C36.0730399,32.702915 38.1094067,33.7354735 40.1457734,33.7354735 C42.9499507,33.7354735 46.1547246,31.6203939 46.819604,31.2567779 L46.819604,31.2567779 L48.2968045,30.382434 L48.2968045,19.5488965 Z M153.625688,11.5521192 C150.046884,11.5521192 146.881234,14.2861788 146.113549,20.0651757 L146.113549,20.0651757 L160.780504,20.0651757 C160.780504,14.6497948 157.969384,11.5521192 153.625688,11.5521192 Z M211.624774,11.4729853 C208.079721,11.4729853 204.94116,14.2065865 204.183481,19.9818394 L204.183481,19.9818394 L218.70935,19.9818394 C218.70935,14.5673664 215.924741,11.4729853 211.624774,11.4729853 Z M95.9889195,8.8817842e-15 C97.3976847,8.8817842e-15 98.506537,1.11879553 98.506537,2.54122506 C98.506537,3.96365458 97.3976847,5.08245011 95.9889195,5.08245011 C94.5774028,5.08245011 93.4713019,3.96365458 93.4713019,2.54122506 C93.4713019,1.11879553 94.5774028,8.8817842e-15 95.9889195,8.8817842e-15 Z" id="Combined-Shape"></path>
            </g>
        </g>
    </g>
</svg>