<?xml version="1.0" encoding="UTF-8"?>
<svg width="4px" height="182px" viewBox="0 0 4 182" version="1.1" xmlns="http://www.w3.org/2000/svg" xmlns:xlink="http://www.w3.org/1999/xlink">
    <title>scroll</title>
    <desc>Created with Sketch.</desc>
    <g id="Page-1" stroke="none" stroke-width="1" fill="none" fill-rule="evenodd">
        <g id="01-Home" transform="translate(-825.000000, -801.000000)" fill="#000000">
            <g id="Scroll" transform="translate(825.000000, 801.000000)">
                <path d="M2,178 C3.1045695,178 4,178.895431 4,180 C4,181.104569 3.1045695,182 2,182 C0.8954305,182 0,181.104569 0,180 C0,178.895431 0.8954305,178 2,178 Z M2,162 C3.1045695,162 4,162.895431 4,164 C4,165.104569 3.1045695,166 2,166 C0.8954305,166 0,165.104569 0,164 C0,162.895431 0.8954305,162 2,162 Z M2,146 C3.1045695,146 4,146.895431 4,148 C4,149.104569 3.1045695,150 2,150 C0.8954305,150 0,149.104569 0,148 C0,146.895431 0.8954305,146 2,146 Z M2,129 C3.1045695,129 4,129.895431 4,131 C4,132.104569 3.1045695,133 2,133 C0.8954305,133 0,132.104569 0,131 C0,129.895431 0.8954305,129 2,129 Z M2,113 C3.1045695,113 4,113.895431 4,115 C4,116.104569 3.1045695,117 2,117 C0.8954305,117 0,116.104569 0,115 C0,113.895431 0.8954305,113 2,113 Z M2,97 C3.1045695,97 4,97.8954305 4,99 C4,100.104569 3.1045695,101 2,101 C0.8954305,101 0,100.104569 0,99 C0,97.8954305 0.8954305,97 2,97 Z M2,81 C3.1045695,81 4,81.8954305 4,83 C4,84.1045695 3.1045695,85 2,85 C0.8954305,85 0,84.1045695 0,83 C0,81.8954305 0.8954305,81 2,81 Z M2,65 C3.1045695,65 4,65.8954305 4,67 C4,68.1045695 3.1045695,69 2,69 C0.8954305,69 0,68.1045695 0,67 C0,65.8954305 0.8954305,65 2,65 Z M2,49 C3.1045695,49 4,49.8954305 4,51 C4,52.1045695 3.1045695,53 2,53 C0.8954305,53 0,52.1045695 0,51 C0,49.8954305 0.8954305,49 2,49 Z M2,32 C3.1045695,32 4,32.8954305 4,34 C4,35.1045695 3.1045695,36 2,36 C0.8954305,36 0,35.1045695 0,34 C0,32.8954305 0.8954305,32 2,32 Z M2,16 C3.1045695,16 4,16.8954305 4,18 C4,19.1045695 3.1045695,20 2,20 C0.8954305,20 0,19.1045695 0,18 C0,16.8954305 0.8954305,16 2,16 Z M2,0 C3.1045695,0 4,0.8954305 4,2 C4,3.1045695 3.1045695,4 2,4 C0.8954305,4 0,3.1045695 0,2 C0,0.8954305 0.8954305,0 2,0 Z" id="Combined-Shape"></path>
            </g>
        </g>
    </g>
</svg>